<?xml version="1.0" encoding="utf-8"?>
<!-- Generator: Adobe Illustrator 21.1.0, SVG Export Plug-In . SVG Version: 6.00 Build 0)  -->
<svg version="1.1" id="Capa_1" xmlns="http://www.w3.org/2000/svg" xmlns:xlink="http://www.w3.org/1999/xlink" x="0px" y="0px"
	 viewBox="0 0 215.8 215.8" style="enable-background:new 0 0 215.8 215.8;" xml:space="preserve">
<style type="text/css">
	.st0{fill:#FFFFFF;}
</style>
<path class="st0" d="M198.3,165l-17.4-17.4c1-0.8,1.9-1.7,2.7-2.8c4-5.5,3-12.7,2.2-19c-0.5-4-1.1-8.2-0.2-10.8
	c0.8-2.4,3.6-5.3,6.3-8.1c4.5-4.7,9.7-10.1,9.7-17.1s-5.1-12.4-9.7-17.1c-2.7-2.8-5.5-5.7-6.3-8.1c-0.9-2.6-0.3-6.8,0.2-10.8
	c0.9-6.4,1.8-13.6-2.2-19c-4-5.5-11.2-6.8-17.6-8c-4-0.7-8-1.5-10.2-3c-2.1-1.5-4.1-5.2-5.9-8.7c-3.1-5.7-6.5-12.2-13.1-14.4
	C135.4,0.2,134,0,132.5,0c-4.9,0-9.6,2.3-14.2,4.5c-3.7,1.8-7.5,3.6-10.4,3.6c-2.9,0-6.7-1.8-10.4-3.6C92.9,2.3,88.2,0,83.3,0
	c-1.5,0-3,0.2-4.3,0.7C72.3,2.8,68.9,9.3,65.8,15c-1.9,3.5-3.8,7.1-5.9,8.7c-2.2,1.6-6.3,2.3-10.2,3c-6.3,1.1-13.5,2.4-17.6,8
	c-4,5.5-3,12.7-2.2,19c0.5,4,1.1,8.2,0.2,10.8c-0.8,2.4-3.6,5.3-6.3,8.1c-4.5,4.7-9.7,10.1-9.7,17.1c0,7,5.1,12.4,9.7,17.1
	c2.7,2.8,5.5,5.7,6.3,8.1c0.9,2.6,0.3,6.8-0.2,10.8c-0.9,6.4-1.8,13.6,2.2,19c0.8,1.1,1.7,2,2.7,2.8L17.4,165
	c-4.7,4.7-3.8,8.9-3.2,10.5c0.6,1.6,2.7,5.4,9.3,5.9l17.1,1.4c3,0.2,5.9,3.1,6.2,6.2l1.4,17.1c0.6,7.2,5,9.7,8.6,9.7h0
	c1.8,0,4.7-0.6,7.8-3.7l40.1-40.1c1.2-0.4,2.3-0.6,3.3-0.6c1,0,2.1,0.2,3.3,0.6l40,40c3.1,3.1,5.9,3.7,7.8,3.7
	c3.6,0,8.1-2.6,8.6-9.7l1.4-17.1c0.2-3,3.1-5.9,6.2-6.2l17.1-1.4c6.6-0.5,8.7-4.3,9.3-5.9C202.1,173.9,203,169.7,198.3,165z
	 M124.6,99.6l10.2,31.4L108,111.5L81.3,131l10.2-31.3L64.8,80.4h33.1L108,48.9l10.2,31.5h33.1L124.6,99.6z"/>
</svg>
