<?xml version="1.0" encoding="utf-8"?>
<!-- Generator: Adobe Illustrator 21.1.0, SVG Export Plug-In . SVG Version: 6.00 Build 0)  -->
<svg version="1.1" id="Capa_1" xmlns="http://www.w3.org/2000/svg" xmlns:xlink="http://www.w3.org/1999/xlink" x="0px" y="0px"
	 viewBox="0 0 504 504" style="enable-background:new 0 0 504 504;" xml:space="preserve">
<style type="text/css">
	.st0{fill:#6296F4;}
	.st1{fill:#144BAD;}
	.st2{fill:#2563EB;}
</style>
<g>
	<g>
		<path class="st0" d="M485.6,114.3c-1.5-1.5-3.5-2.3-5.6-2.3c0,0-0.1,0-0.1,0l-374.5,4.9c-2.5,0-4.9,1.3-6.4,3.3
			c-1.5,2.1-1.9,4.7-1.1,7.1l62.5,195.1c1.1,3.3,4.1,5.6,7.6,5.6h280c22.1,0,40-17.9,40-40V120C488,117.9,487.1,115.8,485.6,114.3z
			 M208,288c0,4.4-3.6,8-8,8s-8-3.6-8-8V168c0-4.4,3.6-8,8-8s8,3.6,8,8V288z M248,288c0,4.4-3.6,8-8,8s-8-3.6-8-8V168
			c0-4.4,3.6-8,8-8s8,3.6,8,8V288z M288,288c0,4.4-3.6,8-8,8s-8-3.6-8-8V168c0-4.4,3.6-8,8-8s8,3.6,8,8V288z M328,288
			c0,4.4-3.6,8-8,8s-8-3.6-8-8V168c0-4.4,3.6-8,8-8s8,3.6,8,8V288z M368,288c0,4.4-3.6,8-8,8s-8-3.6-8-8V168c0-4.4,3.6-8,8-8
			s8,3.6,8,8V288z M408,288c0,4.4-3.6,8-8,8s-8-3.6-8-8V168c0-4.4,3.6-8,8-8s8,3.6,8,8V288z M448,288c0,4.4-3.6,8-8,8s-8-3.6-8-8
			V168c0-4.4,3.6-8,8-8s8,3.6,8,8V288z"/>
	</g>
	<g>
		<circle class="st1" cx="144" cy="416" r="32"/>
	</g>
	<g>
		<circle class="st1" cx="456" cy="416" r="32"/>
	</g>
	<g>
		<path class="st2" d="M492,108H108c-0.3,0-0.6,0.1-0.9,0.1l-6.8-23C96.5,72.7,84.9,64,72,64l0,0v0H56v16h16v0l0,0
			c5.9,0,11.2,4,12.9,9.6L158.1,336c3,10.2,9,18.9,16.6,25.7l-37.2,49.5c-2.7,3.5-1.9,8.6,1.6,11.2c1.4,1.1,3.1,1.6,4.8,1.6
			c2.4,0,4.8-1.1,6.4-3.2l37.7-50.3c7.3,3.5,15.3,5.5,23.7,5.5H448v40c0,4.4,3.6,8,8,8s8-3.6,8-8v-40h16c4.4,0,8-3.6,8-8s-3.6-8-8-8
			H211.8c-17.6,0-33.3-11.8-38.3-28.6L114.2,132H492c6.6,0,12-5.4,12-12S498.6,108,492,108z"/>
	</g>
	<g>
		<path class="st1" d="M56,88H16C7.2,88,0,80.8,0,72l0,0c0-8.8,7.2-16,16-16h40c8.8,0,16,7.2,16,16l0,0C72,80.8,64.8,88,56,88z"/>
	</g>
</g>
</svg>
