<?xml version="1.0" encoding="utf-8"?>
<!-- Generator: Adobe Illustrator 21.1.0, SVG Export Plug-In . SVG Version: 6.00 Build 0)  -->
<svg version="1.1" id="Capa_1" xmlns="http://www.w3.org/2000/svg" xmlns:xlink="http://www.w3.org/1999/xlink" x="0px" y="0px"
	 viewBox="0 0 199.5 199.5" style="enable-background:new 0 0 199.5 199.5;" xml:space="preserve">
<style type="text/css">
	.st0{fill:#FFFFFF;}
</style>
<path class="st0" d="M180.9,41.5h-15.9c3.6-2.7,6.4-6.4,8-10.7c2.3-6.3,1.7-13.3-1.6-19.2C167.4,4.4,159.7,0,151.5,0
	C145,0,139,2.7,134.6,7.5L115,28.9c-3-3.4-7.3-5.6-12.2-5.6h-6.1c-4.9,0-9.2,2.2-12.2,5.6L65,7.5C60.6,2.7,54.6,0,48,0
	c-8.2,0-15.9,4.4-20,11.6c-3.3,5.8-3.9,12.8-1.6,19.2c1.6,4.3,4.4,8,8,10.7H18.6c-4.1,0-7.5,3.4-7.5,7.5v40.7c0,4,3.1,7.2,7,7.5V192
	c0,4.1,3.4,7.5,7.5,7.5h50.5h47.3h50.5c4.1,0,7.5-3.4,7.5-7.5V97.1c3.9-0.3,7-3.5,7-7.5V49C188.4,44.8,185.1,41.5,180.9,41.5z
	 M115.9,56.5v128H83.6v-128H88h23.5H115.9z M40.6,25.7c-0.8-2.2-0.6-4.6,0.6-6.6c1.4-2.5,4-4,6.9-4c2.2,0,4.3,0.9,5.8,2.6l21.8,23.9
	h-1L45.2,30.4C43,29.6,41.4,27.9,40.6,25.7z M159,25.7c-0.8,2.2-2.5,3.9-4.7,4.7l-29.5,11.1h-1l21.8-23.9c1.5-1.7,3.6-2.6,5.8-2.6
	c2.9,0,5.5,1.5,6.9,4C159.6,21.1,159.8,23.4,159,25.7z"/>
</svg>
