<svg id="Capa_1" data-name="Capa 1" xmlns="http://www.w3.org/2000/svg" viewBox="0 0 68 69"><defs><style>.cls-1{fill:#fff;}</style></defs><title>Firma</title><path class="cls-1" d="M34.08,1.07A33.43,33.43,0,1,1,.54,33.88,33.44,33.44,0,0,1,34.08,1.07ZM55.4,24.35A11.38,11.38,0,0,0,43.88,13.11c-6.68,0-13.36,0-20,0A11.36,11.36,0,0,0,12.62,24q-.17,10.13,0,20.27c.1,6.87,5,11.57,11.87,11.59h9.6c1.88,0,3.76,0,5.64,0a38.34,38.34,0,0,0,6.23-.15c5.68-1,9.37-5.51,9.46-11.69"/><path class="cls-1" d="M52,34.46c0,3,.13,6,0,9a9.45,9.45,0,0,1-9.57,9.11q-8.33.07-16.67,0c-5.63,0-9.67-4.18-9.73-10q-.08-8,0-16C16,20.4,20,16.44,26.23,16.44c5.32,0,10.63,0,16,0a9.5,9.5,0,0,1,9.63,7.72,24.67,24.67,0,0,1,.13,4.79c0,1.84,0,3.68,0,5.52Zm-29.81,0A11.87,11.87,0,1,0,34.1,22.81,11.75,11.75,0,0,0,22.16,34.46ZM49.56,23.4A3.24,3.24,0,0,0,46.28,20a3.41,3.41,0,0,0-3.43,3.39,3.46,3.46,0,0,0,3.41,3.32A3.34,3.34,0,0,0,49.56,23.4Z"/><path class="cls-1" d="M25.52,34.46a8.5,8.5,0,1,1,8.38,8.37A8.39,8.39,0,0,1,25.52,34.46Z"/></svg>