<?xml version="1.0" encoding="utf-8"?>
<!-- Generator: Adobe Illustrator 23.0.3, SVG Export Plug-In . SVG Version: 6.00 Build 0)  -->
<svg version="1.1" id="Capa_1" xmlns="http://www.w3.org/2000/svg" xmlns:xlink="http://www.w3.org/1999/xlink" x="0px" y="0px"
	 viewBox="0 0 60 60" style="enable-background:new 0 0 60 60;" xml:space="preserve">
<style type="text/css">
	.st0{fill:#FFFFFF;}
</style>
<g>
	<circle class="st0" cx="23" cy="54" r="1"/>
	<path class="st0" d="M27,55h6c0.6,0,1-0.4,1-1s-0.4-1-1-1h-6c-0.6,0-1,0.4-1,1S26.4,55,27,55z"/>
	<path class="st0" d="M37,55h1c0.6,0,1-0.4,1-1s-0.4-1-1-1h-1c-0.6,0-1,0.4-1,1S36.4,55,37,55z"/>
	<path class="st0" d="M12,0v50v10h36V50V0H12z M28.3,4.3l1-1c0.4-0.4,1-0.4,1.4,0s0.4,1,0,1.4l-1,1C29.5,5.9,29.3,6,29,6
		s-0.5-0.1-0.7-0.3C27.9,5.3,27.9,4.7,28.3,4.3z M27.7,6.3C27.9,6.5,28,6.7,28,7s-0.1,0.5-0.3,0.7C27.5,7.9,27.3,8,27,8
		s-0.5-0.1-0.7-0.3C26.1,7.5,26,7.3,26,7c0-0.3,0.1-0.5,0.3-0.7C26.7,5.9,27.3,5.9,27.7,6.3z M24.3,3.3c0.4-0.4,1-0.4,1.4,0
		s0.4,1,0,1.4l-3,3C22.5,7.9,22.3,8,22,8s-0.5-0.1-0.7-0.3c-0.4-0.4-0.4-1,0-1.4L24.3,3.3z M15.3,7.3l4-4c0.4-0.4,1-0.4,1.4,0
		s0.4,1,0,1.4l-4,4C16.5,8.9,16.3,9,16,9s-0.5-0.1-0.7-0.3C14.9,8.3,14.9,7.7,15.3,7.3z M21,9c0,0.3-0.1,0.5-0.3,0.7
		C20.5,9.9,20.3,10,20,10c-0.3,0-0.5-0.1-0.7-0.3C19.1,9.5,19,9.3,19,9s0.1-0.5,0.3-0.7c0.4-0.4,1-0.4,1.4,0C20.9,8.5,21,8.7,21,9z
		 M15.3,12.3l2-2c0.4-0.4,1-0.4,1.4,0s0.4,1,0,1.4l-2,2C16.5,13.9,16.3,14,16,14s-0.5-0.1-0.7-0.3C14.9,13.3,14.9,12.7,15.3,12.3z
		 M15.3,17.3l9-9c0.4-0.4,1-0.4,1.4,0s0.4,1,0,1.4l-9,9C16.5,18.9,16.3,19,16,19s-0.5-0.1-0.7-0.3C14.9,18.3,14.9,17.7,15.3,17.3z
		 M46,58H14v-8h32V58z"/>
</g>
</svg>
