<?xml version="1.0" encoding="utf-8"?>
<!-- Generator: Adobe Illustrator 21.1.0, SVG Export Plug-In . SVG Version: 6.00 Build 0)  -->
<svg version="1.1" id="Capa_1" xmlns="http://www.w3.org/2000/svg" xmlns:xlink="http://www.w3.org/1999/xlink" x="0px" y="0px"
	 viewBox="0 0 60 60" style="enable-background:new 0 0 60 60;" xml:space="preserve">
<style type="text/css">
	.st0{fill:#FFFFFF;}
</style>
<g>
	<path class="st0" d="M55.4,41.1c-0.1-0.4-0.4-0.6-0.8-0.7l-7.8-1.1l-3.5-6.8c-0.3-0.7-1.4-0.7-1.8,0l-3.5,6.8l-7.8,1.1
		c-0.4,0.1-0.7,0.3-0.8,0.7s0,0.8,0.3,1l5.6,5.3L34,54.8c-0.1,0.4,0.1,0.8,0.4,1c0.3,0.2,0.7,0.3,1,0.1l7-3.5l7,3.5
		c0.1,0.1,0.3,0.1,0.5,0.1c0.2,0,0.4-0.1,0.6-0.2c0.3-0.2,0.5-0.6,0.4-1l-1.3-7.4l5.6-5.3C55.4,41.9,55.5,41.5,55.4,41.1z
		 M47.7,46.3c-0.2,0.2-0.4,0.6-0.3,0.9l1.1,6l-5.6-2.9c-0.3-0.1-0.6-0.1-0.9,0l-5.6,2.9l1.1-6c0.1-0.3-0.1-0.7-0.3-0.9l-4.5-4.2
		l6.2-0.9c0.3,0,0.6-0.2,0.8-0.5l2.8-5.5l2.8,5.5c0.1,0.3,0.4,0.5,0.8,0.5l6.2,0.9L47.7,46.3z"/>
	<path class="st0" d="M17.6,5h4c0.6,0,1-0.4,1-1s-0.4-1-1-1h-4c-0.6,0-1,0.4-1,1S17,5,17.6,5z"/>
	<path class="st0" d="M24.6,5h1c0.6,0,1-0.4,1-1s-0.4-1-1-1h-1c-0.6,0-1,0.4-1,1S24,5,24.6,5z"/>
	<path class="st0" d="M17.6,53c0,2.2,1.8,4,4,4s4-1.8,4-4s-1.8-4-4-4S17.6,50.8,17.6,53z M23.6,53c0,1.1-0.9,2-2,2s-2-0.9-2-2
		s0.9-2,2-2S23.6,51.9,23.6,53z"/>
	<path class="st0" d="M27.6,46h-21V8h30v22c0,0.6,0.4,1,1,1s1-0.4,1-1V4.4c0-2.4-2-4.4-4.4-4.4H9C6.6,0,4.6,2,4.6,4.4v51.2
		C4.6,58,6.6,60,9,60h17.6c0.6,0,1-0.4,1-1s-0.4-1-1-1H9c-1.3,0-2.4-1.1-2.4-2.4V48h21c0.6,0,1-0.4,1-1S28.1,46,27.6,46z M9,2h25.2
		c1.3,0,2.4,1.1,2.4,2.4V6h-30V4.4C6.6,3.1,7.7,2,9,2z"/>
</g>
</svg>
